<?xml version="1.0" encoding="UTF-8"?>
<svg version="1.1" xmlns="http://www.w3.org/2000/svg" width="225" height="225">
<path d="M0 0 C21.23362428 17.41485416 36.62889836 43.69257742 40.00292969 71.15576172 C42.94421292 103.37956721 36.17523287 132.72942388 15.921875 158.31640625 C2.63281953 173.94524413 -15.39340935 189.23456277 -35.765625 194.69140625 C-39.640625 194.56640625 -39.640625 194.56640625 -42.765625 193.69140625 C-45.39431581 189.74837004 -45.04442852 186.35589054 -45.0390625 181.78125 C-45.05937027 179.968093 -45.08022138 178.15494201 -45.1015625 176.34179688 C-45.12405083 173.49384498 -45.14058935 170.64613195 -45.14648438 167.7980957 C-45.16185383 151.41958477 -45.16185383 151.41958477 -51.765625 136.69140625 C-50.96640625 136.52125 -50.1671875 136.35109375 -49.34375 136.17578125 C-34.56519734 132.91478606 -18.6351966 129.11857311 -9.765625 115.69140625 C-1.38807763 102.34494109 0.36694698 85.26994677 -2.45703125 69.9375 C-3.91211595 64.6833657 -5.53072462 60.66321252 -9.078125 56.50390625 C-10.94738832 54.2739079 -11.72951985 53.23034162 -11.92578125 50.30078125 C-11.63897145 47.73913751 -11.21439387 45.22913463 -10.765625 42.69140625 C-10.24766737 35.52843118 -11.43441135 28.71593544 -12.765625 21.69140625 C-22.05034615 22.39479422 -34.87773663 25.80351788 -41.765625 32.69140625 C-43.47728597 32.62625652 -45.18636389 32.48822549 -46.890625 32.31640625 C-47.82132813 32.22617187 -48.75203125 32.1359375 -49.7109375 32.04296875 C-51.77023496 31.80596521 -53.82362439 31.5115197 -55.8671875 31.1640625 C-61.25732362 30.510549 -66.59094424 30.50713139 -72.015625 30.50390625 C-73.08425781 30.49166016 -74.15289062 30.47941406 -75.25390625 30.46679688 C-82.31773294 30.45392234 -88.86400619 31.22448565 -95.765625 32.69140625 C-101.43432311 33.61690798 -104.41778271 31.23300692 -109.05078125 28.29296875 C-116.00091395 24.19289046 -122.71498245 22.08381059 -130.765625 22.69140625 C-133.47380684 30.98521312 -133.90092994 40.34764334 -132.0859375 48.890625 C-131.765625 51.69140625 -131.765625 51.69140625 -132.83984375 53.859375 C-133.37222656 54.52582031 -133.90460938 55.19226563 -134.453125 55.87890625 C-143.27027934 68.16140729 -143.83772346 82.27607188 -141.5546875 96.8203125 C-139.07826884 108.96947533 -133.00140575 119.52839467 -122.765625 126.69140625 C-114.70191964 131.62779632 -105.93005048 134.12324313 -96.578125 135.25390625 C-95.1859375 135.47046875 -95.1859375 135.47046875 -93.765625 135.69140625 C-93.435625 136.35140625 -93.105625 137.01140625 -92.765625 137.69140625 C-93.69140625 139.8984375 -93.69140625 139.8984375 -95.078125 142.50390625 C-96.46750213 145.13536266 -97.72480449 147.5667868 -98.65234375 150.3984375 C-99.765625 152.69140625 -99.765625 152.69140625 -101.796875 153.87109375 C-109.48255421 156.03573125 -116.58473801 156.74648157 -123.828125 152.81640625 C-128.27850505 149.74159822 -131.35189281 145.52256218 -134.65234375 141.29296875 C-137.5589559 137.71477339 -140.60407214 134.77218268 -144.765625 132.69140625 C-146.30586496 132.62190084 -147.84897488 132.60688268 -149.390625 132.62890625 C-150.20789063 132.63792969 -151.02515625 132.64695313 -151.8671875 132.65625 C-152.49367187 132.66785156 -153.12015625 132.67945313 -153.765625 132.69140625 C-152.61803813 136.13416687 -152.07015811 136.33641231 -149.140625 138.19140625 C-142.59514924 142.90696405 -138.99818267 149.94373284 -135.640625 157.12890625 C-133.49950628 161.48221817 -131.17363133 163.67263434 -126.6328125 165.59375 C-117.86418582 168.50321787 -108.87936006 167.96211125 -99.765625 167.69140625 C-99.64967916 171.62865951 -99.57846036 175.56547548 -99.515625 179.50390625 C-99.48210937 180.62345703 -99.44859375 181.74300781 -99.4140625 182.89648438 C-99.39472656 184.50620117 -99.39472656 184.50620117 -99.375 186.1484375 C-99.3435791 187.63307495 -99.3435791 187.63307495 -99.31152344 189.14770508 C-99.765625 191.69140625 -99.765625 191.69140625 -101.55639648 193.54370117 C-105.01750759 195.34176541 -108.13648357 194.60796434 -111.765625 193.69140625 C-114.59744914 192.7154322 -117.26339541 191.505475 -119.953125 190.19140625 C-121.05950317 189.65737183 -121.05950317 189.65737183 -122.18823242 189.11254883 C-134.20251465 183.14894243 -144.26038087 175.0627737 -153.765625 165.69140625 C-154.55710938 164.9128125 -155.34859375 164.13421875 -156.1640625 163.33203125 C-177.88751652 140.61768283 -185.51061188 110.63637287 -185.0078125 80.01171875 C-184.14188305 51.00736891 -170.0916461 23.96201534 -149.3828125 4.02734375 C-106.73490118 -34.03750845 -44.59802398 -35.61798292 0 0 Z " fill="white" transform="translate(184.765625,25.30859375)"/>
<path d="M0 0 C0.99 0.33 1.98 0.66 3 1 C2.38125 1.268125 1.7625 1.53625 1.125 1.8125 C-1.2995233 2.95556848 -1.2995233 2.95556848 -3 6 C-5.03150594 7.75129823 -6.6562101 8.88782869 -9.21484375 9.72265625 C-13.03338431 11.47393642 -15.71232349 14.01057342 -18.75 16.875 C-19.36689697 17.45435303 -19.98379395 18.03370605 -20.61938477 18.63061523 C-34.68498036 32.14130425 -47.12727589 51.2275175 -49 71 C-49.66 71 -50.32 71 -51 71 C-51.66 80.9 -52.32 90.8 -53 101 C-53.66 100.67 -54.32 100.34 -55 100 C-56.10655667 69.18034754 -45.05917797 42.14292927 -24.5625 19.28125 C-17.51348559 11.96111965 -9.11177322 4.62456832 0 0 Z " fill="white" transform="translate(55,15)"/>
<path d="M0 0 C0.68707031 0.34933594 1.37414062 0.69867188 2.08203125 1.05859375 C2.98308594 1.51363281 3.88414063 1.96867187 4.8125 2.4375 C6.15248047 3.11619141 6.15248047 3.11619141 7.51953125 3.80859375 C11.23426018 5.59283363 13.18409285 6.15613341 17.125 5.125 C31.04225483 1.83990636 45.50007475 2.20004006 59.5625 4.375 C60.38991699 4.50100586 61.21733398 4.62701172 62.06982422 4.75683594 C64.06108458 5.09453753 66.03394045 5.53764727 68 6 C68.495 6.99 68.495 6.99 69 8 C67.47897677 7.85616078 65.95819103 7.70980986 64.4375 7.5625 C63.16712891 7.44068359 63.16712891 7.44068359 61.87109375 7.31640625 C59.88169178 7.09716603 57.89883153 6.81250753 55.92578125 6.4765625 C50.52586609 5.82105041 45.18460173 5.81573104 39.75 5.8125 C38.68136719 5.80025391 37.61273438 5.78800781 36.51171875 5.77539062 C29.44789206 5.76251609 22.90161881 6.5330794 16 8 C10.249115 8.93892 6.7561512 6.42632241 1.9765625 3.5078125 C1.32429688 3.01023438 0.67203125 2.51265625 0 2 C0 1.34 0 0.68 0 0 Z " fill="white" transform="translate(73,50)"/>
<path d="M0 0 C1.175625 0.268125 2.35125 0.53625 3.5625 0.8125 C6.66811709 1.51312721 9.77236414 2.14457667 12.90234375 2.73046875 C13.57773193 2.85768311 14.25312012 2.98489746 14.94897461 3.1159668 C16.30915154 3.3706458 17.6706664 3.61828658 19.03344727 3.85864258 C20.70252968 4.17431081 22.35404214 4.58011279 24 5 C24.33 5.66 24.66 6.32 25 7 C24.07421875 9.20703125 24.07421875 9.20703125 22.6875 11.8125 C21.30057659 14.43930909 20.01778445 16.95223411 18.98046875 19.73828125 C18 22 18 22 15.625 23.375 C12.91676239 24.01981848 11.57614778 23.95412881 9 23 C11.90600261 21.74335022 13.79604584 21 17 21 C17 19.9275 17 18.855 17 17.75 C17 9 17 9 18 6 C16.88625 5.9175 15.7725 5.835 14.625 5.75 C9.3848781 5.12080974 4.79758766 3.11369129 0 1 C0 0.67 0 0.34 0 0 Z " fill="white" transform="translate(67,156)"/>
<path d="M0 0 C-8.77168178 5.17925934 -18.22176857 7.49685797 -28 10 C-27.484375 10.94875 -26.96875 11.8975 -26.4375 12.875 C-25.963125 13.90625 -25.48875 14.9375 -25 16 C-25.33 16.66 -25.66 17.32 -26 18 C-27.98 14.7 -29.96 11.4 -32 8 C-31.20078125 7.82984375 -30.4015625 7.6596875 -29.578125 7.484375 C-16.82104194 4.79898147 -16.82104194 4.79898147 -4.84765625 -0.18359375 C-3 -1 -3 -1 0 0 Z " fill="white" transform="translate(165,154)"/>
<path d="M0 0 C1.175625 0.268125 2.35125 0.53625 3.5625 0.8125 C6.66811709 1.51312721 9.77236414 2.14457667 12.90234375 2.73046875 C13.57773193 2.85768311 14.25312012 2.98489746 14.94897461 3.1159668 C16.30915154 3.3706458 17.6706664 3.61828658 19.03344727 3.85864258 C20.70252968 4.17431081 22.35404214 4.58011279 24 5 C24.33 5.66 24.66 6.32 25 7 C24.22265625 8.7265625 24.22265625 8.7265625 23.0625 10.625 C22.381875 11.73875 21.70125 12.8525 21 14 C20.375 12.1875 20.375 12.1875 20 10 C20.66 9.01 21.32 8.02 22 7 C21.24976562 6.90203125 20.49953125 6.8040625 19.7265625 6.703125 C12.65768946 5.67039292 6.49935576 3.96209577 0 1 C0 0.67 0 0.34 0 0 Z " fill="white" transform="translate(67,156)"/>
<path d="M0 0 C0.56203125 0.71929687 1.1240625 1.43859375 1.703125 2.1796875 C4.69054964 5.8479198 7.92870561 9.25336821 11.171875 12.6953125 C13 15 13 15 13 18 C7.504135 13.7132253 3.24306047 9.23665475 0 3 C0 2.01 0 1.02 0 0 Z " fill="white" transform="translate(46,135)"/>
<path d="M0 0 C0.99 0.33 1.98 0.66 3 1 C2.071875 1.4021875 2.071875 1.4021875 1.125 1.8125 C-1.2995233 2.95556848 -1.2995233 2.95556848 -3 6 C-4.30518475 7.03647024 -5.63461347 8.04422943 -7 9 C-7 6 -7 6 -4.625 3.375 C-2 1 -2 1 0 0 Z " fill="white" transform="translate(55,15)"/>
<path d="M0 0 C0.99 0.33 1.98 0.66 3 1 C1.68 3.64 0.36 6.28 -1 9 C-2.07349791 4.70600835 -1.79682816 3.80504787 0 0 Z " fill="#05051D" transform="translate(89,161)"/>
</svg>
